<svg width="14" height="16" viewBox="0 0 22 25" fill="none" alt="Remove todo" xmlns="http://www.w3.org/2000/svg">
<title>Remove todo</title>
<path d="M3.5 8C3.5 7.44772 3.94772 7 4.5 7H17.5C18.0523 7 18.5 7.44772 18.5 8V23C18.5 23.5523 18.0523 24 17.5 24H4.5C3.94771 24 3.5 23.5523 3.5 23V8Z" stroke="#B71C06" stroke-width="2"/>
<path d="M1.5 5C1.5 4.44772 1.94772 4 2.5 4H19.5C20.0523 4 20.5 4.44772 20.5 5V6C20.5 6.55228 20.0523 7 19.5 7H2.5C1.94772 7 1.5 6.55228 1.5 6V5Z" stroke="#B71C06" stroke-width="2"/>
<path d="M7.5 2C7.5 1.44772 7.94772 1 8.5 1H13.5C14.0523 1 14.5 1.44772 14.5 2V3C14.5 3.55228 14.0523 4 13.5 4H8.5C7.94772 4 7.5 3.55228 7.5 3V2Z" stroke="#B71C06" stroke-width="2"/>
<path fill-rule="evenodd" clip-rule="evenodd" d="M6.5 11C6.5 10.4477 6.94772 10 7.5 10C8.05228 10 8.5 10.4477 8.5 11V20C8.5 20.5523 8.05228 21 7.5 21C6.94772 21 6.5 20.5523 6.5 20V11Z" fill="#B71C06"/>
<path fill-rule="evenodd" clip-rule="evenodd" d="M10 11C10 10.4477 10.4477 10 11 10C11.5523 10 12 10.4477 12 11V20C12 20.5523 11.5523 21 11 21C10.4477 21 10 20.5523 10 20V11Z" fill="#B71C06"/>
<path fill-rule="evenodd" clip-rule="evenodd" d="M13.5 11C13.5 10.4477 13.9477 10 14.5 10C15.0523 10 15.5 10.4477 15.5 11V20C15.5 20.5523 15.0523 21 14.5 21C13.9477 21 13.5 20.5523 13.5 20V11Z" fill="#B71C06"/>
</svg>
